<svg xmlns="http://www.w3.org/2000/svg" xmlns:xlink="http://www.w3.org/1999/xlink" contentStyleType="text/css" data-diagram-type="DESCRIPTION" height="368px" preserveAspectRatio="none" style="width:786px;height:368px;background:#FFFFFF;" version="1.1" viewBox="0 0 786 368" width="786px" zoomAndPan="magnify"><?plantuml 1.2026.6?><defs/><g><g class="title" data-source-line="2"><text fill="#000000" font-family="Helvetica" font-size="14" font-weight="700" lengthAdjust="spacing" textLength="158.71" x="310.395" y="20.7803">myEcho &#8212; Architecture</text></g><!--cluster device--><g class="cluster" data-qualified-name="device" data-source-line="21" id="ent0001"><polygon fill="#F4F7FB" points="14,49,24,39,377,39,377,240.5,367,250.5,14,250.5,14,49" style="stroke:#5B7FA6;stroke-width:1;stroke-linejoin:miter;stroke-miterlimit:10;"/><line style="stroke:#5B7FA6;stroke-width:1;" x1="367" x2="377" y1="49" y2="39"/><line style="stroke:#5B7FA6;stroke-width:1;" x1="14" x2="367" y1="49" y2="49"/><line style="stroke:#5B7FA6;stroke-width:1;" x1="367" x2="367" y1="49" y2="250.5"/><text fill="#000000" font-family="Helvetica" font-size="14" font-weight="700" lengthAdjust="spacing" textLength="142.3037" x="120.3481" y="62.7803">Mobile App (Android)</text></g><!--cluster pi--><g class="cluster" data-qualified-name="pi" data-source-line="28" id="ent0006"><polygon fill="#F4F7FB" points="385,156,395,146,647,146,647,350.5,637,360.5,385,360.5,385,156" style="stroke:#5B7FA6;stroke-width:1;stroke-linejoin:miter;stroke-miterlimit:10;"/><line style="stroke:#5B7FA6;stroke-width:1;" x1="637" x2="647" y1="156" y2="146"/><line style="stroke:#5B7FA6;stroke-width:1;" x1="385" x2="637" y1="156" y2="156"/><line style="stroke:#5B7FA6;stroke-width:1;" x1="637" x2="637" y1="156" y2="360.5"/><text fill="#000000" font-family="Helvetica" font-size="14" font-weight="700" lengthAdjust="spacing" textLength="166.5098" x="428.7451" y="169.7803">Backend &#8212; Raspberry Pi</text><text fill="#000000" font-family="Helvetica" font-size="14" font-weight="700" lengthAdjust="spacing" textLength="120.5859" x="451.707" y="183.7803">(FastAPI &#183; Docker)</text></g><!--entity fish--><g class="entity" data-qualified-name="fish" data-source-line="34" id="ent0010"><path d="M665.6497,310.4319 C668.9662,304.9779 674.5067,304.6742 677.1519,311.0829 C680.6824,305.2792 687.4365,305.034 691.3244,310.6388 C695.6526,304.7051 700.5237,305.1573 704.5075,311.0236 C708.5554,304.74 712.3644,305.4606 716.8488,310.5499 C721.7943,303.8676 726.2397,304.0799 730.9918,310.7546 C734.6275,304.9217 741.1602,305.1144 744.1976,311.4062 C749.0563,304.826 753.6405,305.1357 758.7985,311.0566 C761.8156,305.1865 768.286,304.7894 771.8824,310.3962 C778.8787,314.6893 778.4869,320.2639 772.3045,324.9394 C778.1752,329.0125 777.6364,335.8596 771.3967,339.1596 C767.6566,346.0888 762.9096,346.1463 758.1041,340.2653 C756.2872,348.4567 750.2062,350.2618 744.3808,344.097 C741.2554,351.0989 736.7386,350.9989 731.7294,346.0994 C729.5921,352.9394 723.1532,353.6648 718.7042,348.6363 C713.1517,355.1559 708.3537,352.7249 704.8318,346.437 C699.1736,351.4493 694.7805,350.727 690.8898,344.2855 C685.4199,349.6721 681.5828,348.791 678.8141,341.6763 C674.4637,346.8684 668.6293,345.8242 665.6718,340.0127 C656.1203,339.4307 651.0213,334.3786 655.3603,324.5397 C651.5746,316.0114 655.2793,308.6357 665.6497,310.4319" fill="#EAF7EE" style="stroke:#3C9D5A;stroke-width:0.5;"/><text fill="#000000" font-family="Helvetica" font-size="14" lengthAdjust="spacing" textLength="92.5996" x="670.5" y="327.7803">Fish Audio API</text></g><!--entity ui--><g class="entity" data-qualified-name="device.ui" data-source-line="22" id="ent0002"><rect fill="#F1F1F1" height="34" rx="2.5" ry="2.5" style="stroke:#181818;stroke-width:0.5;" width="144.4961" x="218" y="69"/><text fill="#000000" font-family="Helvetica" font-size="14" lengthAdjust="spacing" textLength="124.4961" x="228" y="89.7803">Compose &amp; Chat UI</text></g><!--entity acache--><g class="entity" data-qualified-name="device.acache" data-source-line="23" id="ent0003"><path d="M22,195.5 C22,185.5 75.9619,185.5 75.9619,185.5 C75.9619,185.5 129.9238,185.5 129.9238,195.5 L129.9238,232.5 C129.9238,242.5 75.9619,242.5 75.9619,242.5 C75.9619,242.5 22,242.5 22,232.5 L22,195.5" fill="#FFF6E5" style="stroke:#B8860B;stroke-width:0.5;"/><path d="M22,195.5 C22,205.5 75.9619,205.5 75.9619,205.5 C75.9619,205.5 129.9238,205.5 129.9238,195.5" fill="none" style="stroke:#B8860B;stroke-width:0.5;"/><text fill="#000000" font-family="Helvetica" font-size="14" lengthAdjust="spacing" textLength="77.0547" x="32" y="220.2803">Audio cache</text><text fill="#000000" font-family="Helvetica" font-size="14" lengthAdjust="spacing" textLength="87.9238" x="32" y="234.2803">LRU &#183; 100 MB</text></g><!--entity ccache--><g class="entity" data-qualified-name="device.ccache" data-source-line="24" id="ent0004"><path d="M148.5,195.5 C148.5,185.5 193.9102,185.5 193.9102,185.5 C193.9102,185.5 239.3203,185.5 239.3203,195.5 L239.3203,232.5 C239.3203,242.5 193.9102,242.5 193.9102,242.5 C193.9102,242.5 148.5,242.5 148.5,232.5 L148.5,195.5" fill="#FFF6E5" style="stroke:#B8860B;stroke-width:0.5;"/><path d="M148.5,195.5 C148.5,205.5 193.9102,205.5 193.9102,205.5 C193.9102,205.5 239.3203,205.5 239.3203,195.5" fill="none" style="stroke:#B8860B;stroke-width:0.5;"/><text fill="#000000" font-family="Helvetica" font-size="14" lengthAdjust="spacing" textLength="70.8203" x="158.5" y="220.2803">Chat cache</text><text fill="#000000" font-family="Helvetica" font-size="14" lengthAdjust="spacing" textLength="46.6826" x="158.5" y="234.2803">(offline)</text></g><!--entity fallback--><g class="entity" data-qualified-name="device.fallback" data-source-line="25" id="ent0005"><rect fill="#F1F1F1" height="48" rx="2.5" ry="2.5" style="stroke:#181818;stroke-width:0.5;" width="109.4893" x="257.5" y="190"/><text fill="#000000" font-family="Helvetica" font-size="14" lengthAdjust="spacing" textLength="82.5029" x="267.5" y="210.7803">Local speech</text><text fill="#000000" font-family="Helvetica" font-size="14" lengthAdjust="spacing" textLength="89.4893" x="267.5" y="224.7803">(expo-speech)</text></g><!--entity tts--><g class="entity" data-qualified-name="pi.tts" data-source-line="29" id="ent0007"><rect fill="#F1F1F1" height="48" rx="2.5" ry="2.5" style="stroke:#181818;stroke-width:0.5;" width="150.6963" x="487.5" y="190"/><text fill="#000000" font-family="Helvetica" font-size="14" lengthAdjust="spacing" textLength="64.5654" x="497.5" y="210.7803">TTS proxy</text><text fill="#000000" font-family="Helvetica" font-size="14" lengthAdjust="spacing" textLength="130.6963" x="497.5" y="224.7803">/stream/tts &#183; /warmup</text></g><!--entity chatapi--><g class="entity" data-qualified-name="pi.chatapi" data-source-line="30" id="ent0008"><rect fill="#F1F1F1" height="48" rx="2.5" ry="2.5" style="stroke:#181818;stroke-width:0.5;" width="76.0273" x="393" y="190"/><text fill="#000000" font-family="Helvetica" font-size="14" lengthAdjust="spacing" textLength="56.0273" x="403" y="210.7803">Chat API</text><text fill="#000000" font-family="Helvetica" font-size="14" lengthAdjust="spacing" textLength="37.3516" x="403" y="224.7803">/chats</text></g><!--entity db--><g class="entity" data-qualified-name="pi.db" data-source-line="31" id="ent0009"><path d="M393,305.5 C393,295.5 460.1929,295.5 460.1929,295.5 C460.1929,295.5 527.3857,295.5 527.3857,305.5 L527.3857,342.5 C527.3857,352.5 460.1929,352.5 460.1929,352.5 C460.1929,352.5 393,352.5 393,342.5 L393,305.5" fill="#FFF6E5" style="stroke:#B8860B;stroke-width:0.5;"/><path d="M393,305.5 C393,315.5 460.1929,315.5 460.1929,315.5 C460.1929,315.5 527.3857,315.5 527.3857,305.5" fill="none" style="stroke:#B8860B;stroke-width:0.5;"/><text fill="#000000" font-family="Helvetica" font-size="14" lengthAdjust="spacing" textLength="42.7998" x="403" y="330.2803">SQLite</text><text fill="#000000" font-family="Helvetica" font-size="14" lengthAdjust="spacing" textLength="114.3857" x="403" y="344.2803">chats &amp; messages</text></g><g class="link" data-entity-1="ent0002" data-entity-2="ent0007" data-link-type="dependency" id="lnk11"><polygon fill="#44515F" points="554.7928,189.6825,555.0673,179.8375,552.8903,185.0586,547.6691,182.8816,554.7928,189.6825" style="stroke:#44515F;stroke-width:1;stroke-linejoin:miter;stroke-miterlimit:10;"/><path d="M362.2139,92.031 C415.2729,96.8981 481.9635,105.8225 505,121 C529.754,137.3091 544.0577,163.5927 552.8903,185.0586" fill="none" style="stroke:#44515F;stroke-width:1;"/><text fill="#000000" font-family="Helvetica" font-size="13" lengthAdjust="spacing" textLength="110.5063" x="525" y="133.0103">text (HTTP stream)</text></g><g class="link" data-entity-1="ent0007" data-entity-2="ent0002" data-link-type="dependency" id="lnk12"><polygon fill="#44515F" points="362.3885,88.9137,371.2463,93.2194,367.3855,89.0849,371.5201,85.2241,362.3885,88.9137" style="stroke:#44515F;stroke-width:1;stroke-linejoin:miter;stroke-miterlimit:10;"/><path d="M604.0562,189.9454 C632.5063,171.11 661.831,143.9463 641,121 C622.662,100.7998 464.6869,92.4173 367.3855,89.0849" fill="none" style="stroke:#44515F;stroke-width:1;"/><text fill="#000000" font-family="Helvetica" font-size="13" lengthAdjust="spacing" textLength="71.5317" x="650" y="133.0103">MP3 chunks</text></g><g class="link" data-entity-1="ent0007" data-entity-2="ent0010" data-link-type="dependency" id="lnk13"><polygon fill="#44515F" points="596.0369,238.1687,601.1087,246.6112,600.1305,241.0396,605.7022,240.0614,596.0369,238.1687" style="stroke:#44515F;stroke-width:1;stroke-linejoin:miter;stroke-miterlimit:10;"/><polygon fill="#44515F" points="686.8894,301.8835,681.8175,293.441,682.7958,299.0126,677.2241,299.9908,686.8894,301.8835" style="stroke:#44515F;stroke-width:1;stroke-linejoin:miter;stroke-miterlimit:10;"/><path d="M600.1305,241.0396 C627.0863,259.9436 656.6647,280.6869 682.7958,299.0126" fill="none" style="stroke:#44515F;stroke-width:1;"/><text fill="#000000" font-family="Helvetica" font-size="13" lengthAdjust="spacing" textLength="66.4727" x="651" y="272.5103">WebSocket</text></g><g class="link" data-entity-1="ent0002" data-entity-2="ent0003" data-link-type="dependency" id="lnk14"><polygon fill="#44515F" points="66.0789,185.199,67.6785,175.4809,64.8173,180.3608,59.9374,177.4995,66.0789,185.199" style="stroke:#44515F;stroke-width:1;stroke-linejoin:miter;stroke-miterlimit:10;"/><path d="M217.9209,88.5257 C162.186,91.4098 91.4993,99.3765 73,121 C58.1441,138.3648 59.5595,160.1981 64.8173,180.3608" fill="none" style="stroke:#44515F;stroke-width:1;stroke-dasharray:7,7;"/><text fill="#000000" font-family="Helvetica" font-size="13" lengthAdjust="spacing" textLength="91.7681" x="75" y="133.0103">cache hit / store</text></g><g class="link" data-entity-1="ent0002" data-entity-2="ent0005" data-link-type="dependency" id="lnk15"><polygon fill="#44515F" points="300.9508,189.9648,301.0142,180.1162,298.9495,185.3828,293.6829,183.3182,300.9508,189.9648" style="stroke:#44515F;stroke-width:1;stroke-linejoin:miter;stroke-miterlimit:10;"/><path d="M286.5501,103.18 C285.5117,108.7942 284.5124,115.1483 284,121 C283.341,128.5268 282.6573,130.5647 284,138 C287.2602,156.0542 292.6014,170.8482 298.9495,185.3828" fill="none" style="stroke:#44515F;stroke-width:1;stroke-dasharray:7,7;"/><text fill="#000000" font-family="Helvetica" font-size="13" lengthAdjust="spacing" textLength="82.3799" x="286" y="133.0103">offline fallback</text></g><g class="link" data-entity-1="ent0002" data-entity-2="ent0008" data-link-type="dependency" id="lnk16"><polygon fill="#44515F" points="420.4734,189.8087,419.9978,179.9713,418.2244,185.343,412.8527,183.5697,420.4734,189.8087" style="stroke:#44515F;stroke-width:1;stroke-linejoin:miter;stroke-miterlimit:10;"/><path d="M340.3717,103.1037 C350.8265,107.8498 361.2966,113.7641 370,121 C392.6941,139.8676 407.9099,164.8622 418.2244,185.343" fill="none" style="stroke:#44515F;stroke-width:1;"/><text fill="#000000" font-family="Helvetica" font-size="13" lengthAdjust="spacing" textLength="110.5444" x="389" y="133.0103">push / load (REST)</text></g><g class="link" data-entity-1="ent0008" data-entity-2="ent0009" data-link-type="dependency" id="lnk17"><polygon fill="#44515F" points="452.5556,295.2761,454.0848,285.5467,451.259,290.4471,446.3585,287.6213,452.5556,295.2761" style="stroke:#44515F;stroke-width:1;stroke-linejoin:miter;stroke-miterlimit:10;"/><path d="M437.2212,238.1687 C441.7148,254.9034 446.507,272.7501 451.259,290.4471" fill="none" style="stroke:#44515F;stroke-width:1;"/></g><g class="link" data-entity-1="ent0002" data-entity-2="ent0004" data-link-type="dependency" id="lnk18"><polygon fill="#44515F" points="178.9721,185.0998,179.1413,175.2524,177.0202,180.4966,171.776,178.3755,178.9721,185.0998" style="stroke:#44515F;stroke-width:1;stroke-linejoin:miter;stroke-miterlimit:10;"/><path d="M217.9962,94.5021 C202.4335,99.6219 187.7432,107.86 178,121 C164.3849,139.3618 168.6695,160.8028 177.0202,180.4966" fill="none" style="stroke:#44515F;stroke-width:1;stroke-dasharray:7,7;"/><text fill="#000000" font-family="Helvetica" font-size="13" lengthAdjust="spacing" textLength="98.2744" x="180" y="133.0103">merge on startup</text></g><?plantuml-src TLF1Jjj04BtxAwQfL2K720W255MLd10B9AXI4jG3z31PJ-8LzkvgTqs8gahzYFvBx_sKVabdrmu4rFgqtlVcpPitzXjZSLaXbBZMjGTNaKU5YPU-9AZMOr5e-FFZ9wHM5DAJyBMb977tKXcqM84hCDShgPQmmDBH5fBJ0klIPrhvJrWHd5FvG5uAtE88NHcjIFcfNtC_o_gebkMsJ6gjNerqgIsyFJmSx0-oBL3fdE1R0Z14SR-qkbPvIyqEi-Di611jSxBjxM1udAL7oVTjc-XnZkv_CbbsD1wybXcUd1pj3L_8Y5BN-RyrncbsF1w_rZWOlJyRfAoHn24wLtekEOBK6EYcAhTQvhqEeECS7wHexDsEGbxizHsC2lHmS_4rC6h9sDCSdRJEfGQ1eg0xTNbz0xz_mVxU7bmDenv6v4L556iBkdgnAAMYfhdOa6yljS0Id24I1RFeqUYTvgqNJV3wopcF_ZnH289K7Z-VQtHcJjQkOIAvEaFdqyb5S7QccMMRRaOsOyvcKp1MFwxlLDzvIrZrlNU1tL-XhMeJE_9Lp2IOPp7c2ZwwY8KJcfUvJ3zVyXTyfoAB8wp8ELoIQrAU1-FD5ZkPT0KqCR9mn1TybIIr1DZP-GYXDyJd53mzUkYUpsOJQBpsae16Mk2tjAl90RkgrRsBy8U01z4M_aBpQKZ2nnwxkrpSB2gYpOb_GEXp4ys_u1DhapkpsiqzhoBPz8zcsaoOQ6hksuTIOmxTw_5qraisO6Ho69lAs4EqJauvCxiaq8fTeFMr-Gi0?></g></svg>